<svg width="15" height="16" viewBox="0 0 15 16" fill="none" xmlns="http://www.w3.org/2000/svg">
<path d="M14.6785 2.19015C14.7719 2.28387 14.8244 2.41081 14.8244 2.54315C14.8244 2.67549 14.7719 2.80243 14.6785 2.89615L13.6355 3.94015L11.6355 1.94015L12.6785 0.896149C12.7722 0.802414 12.8994 0.749756 13.032 0.749756C13.1646 0.749756 13.2917 0.802414 13.3855 0.896149L14.6785 2.18915V2.19015ZM12.9285 4.64615L10.9285 2.64615L4.11547 9.46015C4.06044 9.51517 4.019 9.58229 3.99447 9.65615L3.18947 12.0701C3.17487 12.1142 3.1728 12.1614 3.18349 12.2065C3.19417 12.2516 3.2172 12.2929 3.24998 12.3256C3.28277 12.3584 3.32403 12.3815 3.36914 12.3921C3.41426 12.4028 3.46147 12.4007 3.50547 12.3861L5.91947 11.5811C5.99324 11.5569 6.06034 11.5158 6.11547 11.4611L12.9285 4.64615Z" fill="#1C3879"/>
<path fill-rule="evenodd" clip-rule="evenodd" d="M0.17627 13.7501C0.17627 14.1479 0.334305 14.5295 0.615609 14.8108C0.896914 15.0921 1.27844 15.2501 1.67627 15.2501H12.6763C13.0741 15.2501 13.4556 15.0921 13.7369 14.8108C14.0182 14.5295 14.1763 14.1479 14.1763 13.7501V7.75012C14.1763 7.61751 14.1236 7.49034 14.0298 7.39657C13.9361 7.3028 13.8089 7.25012 13.6763 7.25012C13.5437 7.25012 13.4165 7.3028 13.3227 7.39657C13.2289 7.49034 13.1763 7.61751 13.1763 7.75012V13.7501C13.1763 13.8827 13.1236 14.0099 13.0298 14.1037C12.9361 14.1974 12.8089 14.2501 12.6763 14.2501H1.67627C1.54366 14.2501 1.41648 14.1974 1.32272 14.1037C1.22895 14.0099 1.17627 13.8827 1.17627 13.7501V2.75012C1.17627 2.61751 1.22895 2.49034 1.32272 2.39657C1.41648 2.3028 1.54366 2.25012 1.67627 2.25012H8.17627C8.30888 2.25012 8.43606 2.19744 8.52982 2.10368C8.62359 2.00991 8.67627 1.88273 8.67627 1.75012C8.67627 1.61751 8.62359 1.49034 8.52982 1.39657C8.43606 1.3028 8.30888 1.25012 8.17627 1.25012H1.67627C1.27844 1.25012 0.896914 1.40816 0.615609 1.68946C0.334305 1.97077 0.17627 2.3523 0.17627 2.75012V13.7501Z" fill="#1C3879" fill-opacity="0.5"/>
</svg>
