<svg width="990" height="1024" viewBox="0 0 990 1024" fill="none" xmlns="http://www.w3.org/2000/svg">
<path fill-rule="evenodd" clip-rule="evenodd" d="M0 822.396L990 594V1024H0L0 822.396Z" fill="#EEEFF3"/>
<path d="M687.141 533.97C700.977 464.359 688.485 391.817 647.273 331.94C610.8 278.925 561.66 230.489 499.318 219.095C432.804 207.018 373.476 234.609 338.892 296.546C320.994 328.562 308.054 363.509 295.212 398.102C285.253 424.775 276.539 455.096 259.951 478.084C235.37 512.03 207.852 546.906 197.5 589.422C189.255 623.474 199.684 654.831 225.892 675.524C268.753 709.376 319.564 711.813 370.669 709.046C401.869 707.188 432.827 702.063 463.107 693.745C490.265 686.435 516.79 674.735 544.777 671.592C586.579 666.884 622.309 669.238 650.396 629.618C669.768 602.24 680.513 567.34 687.141 533.97Z" fill="#ADBDDF" fill-opacity="0.87"/>
<path opacity="0.7" d="M687.141 533.97C700.977 464.359 688.485 391.817 647.273 331.94C610.8 278.925 561.66 230.489 499.318 219.095C432.804 207.018 373.476 234.609 338.892 296.546C320.994 328.562 308.054 363.509 295.212 398.102C285.253 424.775 276.539 455.096 259.951 478.084C235.37 512.03 207.852 546.906 197.5 589.422C189.255 623.474 199.684 654.831 225.892 675.524C268.753 709.376 319.564 711.813 370.669 709.046C401.869 707.188 432.827 702.063 463.107 693.745C490.265 686.435 516.79 674.735 544.777 671.592C586.579 666.884 622.309 669.238 650.396 629.618C669.768 602.24 680.513 567.34 687.141 533.97Z" fill="white"/>
<path d="M592.247 445.55H560.415V537.572H592.247V445.55Z" fill="white" stroke="#8894AD" stroke-linecap="round" stroke-linejoin="round"/>
<path d="M634.201 433.85H518.449V522.753H634.201V433.85Z" fill="#8894AD" stroke="#8894AD" stroke-linecap="round" stroke-linejoin="round"/>
<path d="M629.145 439.311H523.516V517.292H629.145V439.311Z" fill="white" stroke="#8894AD" stroke-linecap="round" stroke-linejoin="round"/>
<path d="M601.649 536.784H551.734V541.468H601.649V536.784Z" fill="white" stroke="#8894AD" stroke-linecap="round" stroke-linejoin="round"/>
<path d="M527.131 536.784H431.635V541.468H527.131V536.784Z" fill="white" stroke="#8894AD" stroke-linecap="round" stroke-linejoin="round"/>
<path d="M679.782 557.359H671.1V749.973H679.782V557.359Z" fill="white" stroke="#8894AD" stroke-linecap="round" stroke-linejoin="round"/>
<path d="M594.681 557.251H586V749.865H594.681V557.251Z" fill="white" stroke="#8894AD" stroke-linecap="round" stroke-linejoin="round"/>
<path d="M675.392 557.359H428.742V586.997H675.392V557.359Z" fill="white" stroke="#8894AD" stroke-linecap="round" stroke-linejoin="round"/>
<path d="M434.529 557.359H425.848V749.973H434.529V557.359Z" fill="white" stroke="#8894AD" stroke-linecap="round" stroke-linejoin="round"/>
<path d="M679.782 557.359H586.459V721.123H679.782V557.359Z" fill="white" stroke="#8894AD" stroke-linecap="round" stroke-linejoin="round"/>
<path d="M685.58 547.295H419.46V560.478H685.58V547.295Z" fill="#8894AD" stroke="#8894AD" stroke-linecap="round" stroke-linejoin="round"/>
<path d="M693.53 541.857H411.488V550.296H693.53V541.857Z" fill="white" stroke="#8894AD" stroke-linecap="round" stroke-linejoin="round"/>
<path d="M674.715 568.27H591.515V608.043H674.715V568.27Z" fill="white" stroke="#8894AD" stroke-linecap="round" stroke-linejoin="round"/>
<path d="M639.268 585.432H624.079V590.116H639.268V585.432Z" fill="#8894AD" stroke="#8894AD" stroke-linecap="round" stroke-linejoin="round"/>
<path d="M674.715 621.297H591.515V661.07H674.715V621.297Z" fill="white" stroke="#8894AD" stroke-linecap="round" stroke-linejoin="round"/>
<path d="M639.268 638.458H624.079V643.143H639.268V638.458Z" fill="#8894AD" stroke="#8894AD" stroke-linecap="round" stroke-linejoin="round"/>
<path d="M674.715 674.323H591.515V714.096H674.715V674.323Z" fill="white" stroke="#8894AD" stroke-linecap="round" stroke-linejoin="round"/>
<path d="M379.099 514.726L373.115 532.617C373.115 532.617 340.126 584.572 330.899 600.475C321.671 616.377 322.763 614.399 323.255 619.872C323.746 625.346 345.171 701.219 345.63 709.176C345.922 713.486 345.922 717.814 345.63 722.124L354.366 720.629C353.101 724.176 351.397 727.522 349.299 730.575C346.023 735.048 345.608 737.025 340.071 741.498C334.535 745.971 330.396 745.971 333.618 747.96C336.839 749.949 350.675 749.95 354.824 746.972C358.974 743.994 361.748 738.52 364.052 736.037L367.743 732.058L369.119 736.531C369.119 736.531 373.738 731.069 375.572 730.069C377.407 729.068 378.848 726.09 378.848 726.09C378.848 726.09 377.461 722.124 376.085 719.134C374.71 716.144 369.162 711.683 369.162 711.683C369.162 711.683 365.176 670.486 361.518 651.088C357.86 631.69 360.197 631.325 359.269 628.336C358.617 626.3 357.847 624.311 356.965 622.38L395.676 568.482C396.013 568.103 396.434 567.824 396.899 567.67C397.335 567.53 397.796 567.506 398.243 567.6C398.69 567.694 399.108 567.903 399.464 568.21C399.819 568.516 400.1 568.911 400.283 569.36C400.466 569.809 400.545 570.3 400.514 570.789C399.531 586.467 397.915 632.137 399.88 638.482C402.184 645.933 418.881 673.558 420.159 676.254C423.435 683.163 438.908 704.739 441.682 711.201C444.456 717.663 447.207 724.619 447.207 724.619L455.507 719.158C455.507 719.158 457.822 722.63 455.507 725.62C453.192 728.609 446.29 740.027 441.223 743.511C436.156 746.995 437.947 749.973 437.947 749.973C437.947 749.973 456.391 749.467 459.613 748.973C462.834 748.478 465.149 744.5 467.453 741.027C469.482 737.664 471.331 734.178 472.99 730.587L476.681 734.118C476.681 734.118 478.985 729.139 480.371 725.161C481.218 722.608 481.683 719.926 481.747 717.215C481.747 717.215 476.222 711.742 472.531 710.259C468.84 708.776 465.608 707.269 465.608 707.269L460.999 699.818C460.999 699.818 448.551 653.101 443.014 641.672C440.043 635.258 436.156 629.387 431.494 624.275C431.494 624.275 446.399 565.422 449.162 552.545C450.823 544.842 452.055 537.04 452.853 529.18C441.32 520.335 428.09 514.397 414.142 511.807C390.631 507.275 379.099 514.726 379.099 514.726Z" fill="#1C3879" stroke="#1C3879" stroke-linecap="round" stroke-linejoin="round"/>
<path d="M403.167 520.988V526.614C403.167 526.614 395.043 535.371 395.916 538.196C396.79 541.021 398.821 553.498 398.821 553.498" stroke="#7A7A7A" stroke-linecap="round" stroke-linejoin="round"/>
<path d="M408.976 521.294L409.555 527.556C409.555 527.556 402.01 537.879 401.715 539.444C401.615 541.118 401.714 542.799 402.01 544.447" stroke="#7A7A7A" stroke-linecap="round" stroke-linejoin="round"/>
<path d="M417.101 525.99C424.048 528.041 430.775 530.874 437.172 534.441" stroke="#7A7A7A" stroke-linecap="round" stroke-linejoin="round"/>
<path d="M437.467 538.714C432.523 536.562 427.47 534.715 422.332 533.182" stroke="#7A7A7A" stroke-linecap="round" stroke-linejoin="round"/>
<path d="M444.39 541.633L441.114 540.244" stroke="#7A7A7A" stroke-linecap="round" stroke-linejoin="round"/>
<path d="M416.566 555.275C422.146 553.157 429.473 551.003 435.687 551.332" stroke="#7A7A7A" stroke-linecap="round" stroke-linejoin="round"/>
<path d="M407.819 559.16C407.819 559.16 409.49 558.277 412.187 557.1" stroke="#7A7A7A" stroke-linecap="round" stroke-linejoin="round"/>
<path d="M387.038 539.95L388.949 541.951" stroke="#7A7A7A" stroke-linecap="round" stroke-linejoin="round"/>
<path d="M377.92 530.369L384.243 537.019" stroke="#7A7A7A" stroke-linecap="round" stroke-linejoin="round"/>
<path d="M379.078 524.119L389.528 525.366" stroke="#7A7A7A" stroke-linecap="round" stroke-linejoin="round"/>
<path d="M438.941 403.835C438.941 403.835 420.639 406.189 415.365 407.519C410.09 408.849 406.367 408.849 405.122 410.52C403.877 412.192 392.717 422.891 387.442 425.881C382.168 428.871 366.345 433.579 366.028 434.58C365.711 435.58 368.212 452.306 367.579 457.65C366.945 462.994 366.345 466.348 366.345 466.348L395.829 453.978C395.829 453.978 388.381 484.746 385.586 492.432C382.79 500.118 382.179 505.144 380.006 506.816C377.833 508.487 375.965 508.158 375.965 511.159C375.965 514.161 377.833 518.222 378.761 518.516C379.689 518.81 398.93 516.162 406.377 517.515C413.825 518.869 442.053 531.899 447.95 536.242C453.847 540.586 454.152 538.596 456.326 533.888C458.499 529.18 458.51 519.516 458.51 518.504C458.51 517.492 481.758 462.37 481.758 462.37C481.758 462.37 485.165 490.125 488.583 492.138C492.001 494.151 500.06 493.809 503.784 485.782C507.508 477.754 515.261 465.772 511.548 456.355C507.835 446.939 502.812 435.286 500.06 428.588C497.308 421.891 494.786 421.232 487.655 418.23C480.524 415.229 461.589 405.518 459.733 405.188C457.876 404.859 438.941 403.835 438.941 403.835Z" fill="white" stroke="#1C3879" stroke-linecap="round" stroke-linejoin="round"/>
<path d="M426.11 495.551C432.444 504.697 442.228 519.634 444.619 527.944" stroke="#1C3879" stroke-linecap="round" stroke-linejoin="round"/>
<path d="M420.541 487.724C420.541 487.724 421.403 488.901 422.812 490.867" stroke="#1C3879" stroke-linecap="round" stroke-linejoin="round"/>
<path d="M451.062 525.766C451.335 526.355 451.586 526.943 451.837 527.508" stroke="#1C3879" stroke-linecap="round" stroke-linejoin="round"/>
<path d="M445.417 514.973C445.417 514.973 447.338 518.28 449.326 522.188" stroke="#1C3879" stroke-linecap="round" stroke-linejoin="round"/>
<path d="M391.657 515.408C391.657 515.408 411.717 514.102 416.129 514.973" stroke="#1C3879" stroke-linecap="round" stroke-linejoin="round"/>
<path d="M412.111 517.127C412.111 517.127 424.123 518.433 428.971 520.587" stroke="#1C3879" stroke-linecap="round" stroke-linejoin="round"/>
<path d="M481.758 462.358L478.471 450.705L477.871 460.969L464.778 460.322L478.471 468.985L481.758 462.358Z" fill="#1C3879" stroke="#1C3879" stroke-linecap="round" stroke-linejoin="round"/>
<path d="M395.818 455.002L405.122 419.219" stroke="#1C3879" stroke-linecap="round" stroke-linejoin="round"/>
<path d="M400.47 436.275L396.943 426.658L396.342 448.787L391.887 449.422L395.818 454.001L400.47 436.275Z" fill="#1C3879" stroke="#1C3879" stroke-linecap="round" stroke-linejoin="round"/>
<path d="M369.129 431.931C369.129 431.931 376.577 439.617 377.865 445.632C379.154 451.647 374.764 461.016 372.591 464.7C370.418 468.385 367.939 469.409 361.726 470.056C355.512 470.703 348.698 465.03 348.392 459.345C348.087 453.66 355.796 430.589 369.129 431.931Z" fill="white" stroke="#1C3879" stroke-linecap="round" stroke-linejoin="round"/>
<path d="M424.363 442.96C424.363 442.96 408.54 463.7 396.124 471.386C383.708 479.072 375.954 484.428 375.954 484.428L371.586 506.792C371.586 506.792 388.96 504.12 394.234 502.084C399.509 500.048 400.786 499.071 400.786 499.071C400.786 499.071 411.706 474.352 419.099 460.616C426.492 446.88 427.475 444.902 427.475 444.902L424.363 442.96Z" fill="#1C3879" stroke="#1C3879" stroke-linecap="round" stroke-linejoin="round"/>
<path d="M426.536 418.548C426.536 419.548 424.352 442.96 424.352 442.96L427.453 444.973L447.928 428.577C447.928 428.577 448.856 424.575 447.622 424.575C446.389 424.575 436.451 432.261 436.451 432.261L427.715 428.577L428.643 418.889L426.536 418.548Z" fill="#1C3879" stroke="#1C3879" stroke-linecap="round" stroke-linejoin="round"/>
<path d="M437.379 431.554L436.462 432.261L435.294 431.766L425.291 432.79C425.051 435.462 424.821 437.981 424.647 439.853L435.217 438.77L445.231 430.742L437.379 431.554Z" fill="#DAF0FC" stroke="#1C3879" stroke-linecap="round" stroke-linejoin="round"/>
<path d="M417.865 462.97L405.155 464.277C402.345 466.915 399.322 469.278 396.124 471.339L394.584 472.304L414.131 470.292C415.408 467.749 416.664 465.254 417.865 462.97Z" fill="#DAF0FC" stroke="#1C3879" stroke-linecap="round" stroke-linejoin="round"/>
<path d="M374.469 492.114L405.362 488.948C406.389 486.7 407.546 484.24 408.747 481.603L375.856 484.981L374.469 492.114Z" fill="#DAF0FC" stroke="#1C3879" stroke-linecap="round" stroke-linejoin="round"/>
<path d="M420.694 447.539C418.936 449.681 416.653 452.365 414.065 455.213L422.517 454.342C424.516 450.623 425.728 448.328 426.449 446.95L420.694 447.539Z" fill="#DAF0FC" stroke="#1C3879" stroke-linecap="round" stroke-linejoin="round"/>
<path d="M441.114 397.82C441.114 397.82 431.81 402.834 430.565 405.177C429.32 407.519 427.147 415.535 422.495 421.891C417.844 428.247 412.569 432.59 417.221 430.589C421.873 428.588 428.436 421.173 428.436 421.173L431.231 430.589C431.231 430.589 432.782 431.26 435.599 429.918C438.417 428.576 444.587 423.904 444.587 426.575C444.587 429.247 442.73 442.289 444.587 440.288C446.443 438.287 447.382 431.59 454.83 425.234C462.277 418.878 468.796 415.205 469.102 407.848C469.408 400.492 467.246 398.82 461.032 397.149C454.819 395.478 441.736 396.455 441.114 397.82Z" fill="white" stroke="#1C3879" stroke-linecap="round" stroke-linejoin="round"/>
<path d="M438.013 391.464C438.013 391.464 438.941 396.808 436.145 405.506C433.35 414.205 426.842 433.261 432.422 431.26C438.002 429.259 459.722 410.191 461.589 407.519C463.456 404.847 468.141 384.766 468.141 384.766C468.141 384.766 449.839 390.122 444.554 390.793C439.269 391.464 438.013 391.464 438.013 391.464Z" fill="#D5B5BA" stroke="#1C3879" stroke-linecap="round" stroke-linejoin="round"/>
<path d="M438.013 391.464C438.339 394.618 438.124 397.81 437.379 400.88C463.828 395.395 468.108 384.743 468.108 384.743C468.108 384.743 449.806 390.098 444.521 390.769C439.236 391.44 438.013 391.464 438.013 391.464Z" fill="#1C3879" stroke="#1C3879" stroke-linecap="round" stroke-linejoin="round"/>
<path d="M477.412 376.751C477.412 376.751 474.617 373.066 486.41 369.053C498.204 365.039 505.029 361.025 503.478 353.339C501.928 345.653 493.552 343.64 493.552 343.64C493.552 343.64 500.683 329.256 496.031 326.243C491.379 323.23 485.788 327.585 485.788 327.585C485.788 327.585 487.033 316.885 482.064 316.544C477.096 316.203 472.138 320.899 472.138 320.899C472.138 320.899 471.832 309.858 463.14 311.871C454.447 313.884 457.56 323.571 457.56 323.571C457.56 323.571 447.633 319.228 444.215 325.925C440.797 332.623 443.593 335.342 443.593 335.342C443.593 335.342 440.186 336.683 440.186 340.368C440.186 344.052 443.287 347.724 445.766 348.054C448.245 348.383 451.969 346.382 455.081 347.053C458.193 347.724 469.965 355.081 466.558 366.781C463.151 378.481 467.18 380.494 468.742 381.494C470.303 382.495 476.178 379.422 477.412 376.751Z" fill="#1C3879" stroke="#1C3879" stroke-linecap="round" stroke-linejoin="round"/>
<path d="M474.3 357.682C474.3 357.682 478.668 351.997 478.668 348.324C478.668 344.652 466.874 335.612 459.744 335.612C452.613 335.612 442.37 344.97 442.37 347.312C442.37 349.655 442.37 350.996 440.819 352.668C439.269 354.339 433.372 357.682 431.821 361.366C430.271 365.05 424.996 389.121 426.23 390.451C427.464 391.782 434.507 393.229 436.473 393.135C443.025 392.794 456.02 393.135 460.366 391.464C463.081 390.374 465.597 388.78 467.803 386.755C470.794 386.915 473.781 386.344 476.539 385.084C480.262 383.071 484.608 376.727 480.568 374.043C476.528 371.36 470.642 372.713 470.642 372.713C470.642 372.713 469.714 371.371 471.264 369.029C472.815 366.687 472.815 367.028 472.815 365.357C472.815 363.685 471.832 360.354 474.3 357.682Z" fill="#D5B5BA" stroke="#1C3879" stroke-linecap="round" stroke-linejoin="round"/>
<path d="M451.368 348.984C450.513 350.971 449.099 352.618 447.328 353.692C444.226 355.705 438.024 357.035 439.574 359.718C441.125 362.402 444.849 362.72 447.328 362.72C448.016 362.72 448.68 362.448 449.195 361.955C449.71 361.463 450.04 360.785 450.123 360.048" stroke="#1C3879" stroke-linecap="round" stroke-linejoin="round"/>
<path d="M438.635 367.028C442.112 367.778 445.64 368.223 449.184 368.358C453.097 368.562 457.007 367.881 460.661 366.357C460.661 366.357 454.764 375.056 451.357 377.727C449.624 379.201 447.624 380.267 445.485 380.857C443.347 381.447 441.118 381.548 438.941 381.153C434.289 380.152 433.044 377.469 434.289 375.468C435.534 373.467 438.635 367.028 438.635 367.028Z" fill="#1C3879" stroke="#1C3879" stroke-linecap="round" stroke-linejoin="round"/>
<path d="M457.287 371.065C459.187 368.558 460.661 366.357 460.661 366.357C457.007 367.881 453.097 368.562 449.184 368.358C445.64 368.223 442.112 367.778 438.635 367.028L437.347 369.618C443.714 372.217 450.654 372.72 457.287 371.065Z" fill="white" stroke="#1C3879" stroke-linecap="round" stroke-linejoin="round"/>
<path d="M434.038 375.927C433.284 377.857 434.682 380.176 438.941 381.094C442.671 381.833 446.523 381.044 449.741 378.881C450.702 378.222 451.357 377.704 451.357 377.704C451.357 377.704 443.527 380.847 434.038 375.927Z" fill="white" stroke="#1C3879" stroke-linecap="round" stroke-linejoin="round"/>
<path d="M457.56 355.681C457.56 355.681 461.928 354.01 464.385 358.035" stroke="#1C3879" stroke-linecap="round" stroke-linejoin="round"/>
<path d="M447.317 352.326C447.317 352.326 446.083 350.325 443.287 352.326" stroke="#1C3879" stroke-linecap="round" stroke-linejoin="round"/>
<path d="M462.834 345.982C462.834 345.982 466.863 347.983 467.202 354.669" stroke="#1C3879" stroke-width="2" stroke-linecap="round" stroke-linejoin="round"/>
<path d="M450.735 344.664C449.505 344.431 448.242 344.524 447.053 344.934C445.864 345.344 444.786 346.059 443.91 347.018" stroke="#1C3879" stroke-width="2" stroke-linecap="round" stroke-linejoin="round"/>
<path d="M495.725 462.029C495.725 462.029 484.554 470.386 483.309 473.399C482.064 476.412 483.931 491.796 485.22 496.505C486.508 501.213 490.811 501.519 496.708 501.86C502.605 502.202 509.113 502.19 512.531 495.834C515.949 489.478 515.01 482.462 509.43 475.106C505.417 470.114 500.808 465.717 495.725 462.029Z" fill="white" stroke="#1C3879" stroke-linecap="round" stroke-linejoin="round"/>
<path d="M504.101 383.766C504.101 383.766 500.377 380.093 498.826 380.764C497.276 381.435 489.206 383.766 490.44 387.45C491.674 391.134 497.887 389.451 500.06 388.78C501.135 388.503 502.102 387.871 502.827 386.971C503.551 386.072 503.997 384.951 504.101 383.766Z" fill="#A8A8A8" stroke="#1C3879" stroke-linecap="round" stroke-linejoin="round"/>
<path d="M513.099 383.766C513.099 383.766 508.731 377.41 505.651 378.751C502.572 380.093 501.611 385.108 501.611 385.108C501.611 385.108 496.959 386.108 496.031 388.121L495.103 390.122C495.103 390.122 491.062 390.451 490.44 392.476C490.062 393.776 489.856 395.128 489.828 396.49C489.14 396.751 488.524 397.194 488.036 397.778C487.548 398.362 487.203 399.068 487.033 399.833C486.41 402.505 487.033 403.517 488.278 406.895C489.523 410.273 493.552 414.923 494.83 416.594C496.107 418.265 500.726 419.596 501.043 420.608C501.36 421.62 501.349 423.951 500.104 431.307C498.859 438.664 495.452 457.721 492.657 468.09C489.861 478.46 486.771 481.803 490.178 490.831C493.585 499.859 497.319 501.201 501.971 499.859C505.529 498.797 508.77 496.76 511.38 493.946C513.99 491.133 515.88 487.639 516.866 483.804C519.345 473.776 516.55 456.732 516.55 445.35C516.55 433.967 516.866 414.923 516.55 406.507C516.233 398.091 513.099 383.766 513.099 383.766Z" fill="#D5B5BA" stroke="#1C3879" stroke-linecap="round" stroke-linejoin="round"/>
<path d="M408.223 387.45C408.223 387.45 399.847 389.451 396.124 390.122C392.4 390.793 389.572 388.78 388.993 386.779C388.414 384.778 384.024 382.436 384.024 382.436C384.024 382.436 385.575 380.423 394.573 377.728C403.571 375.032 409.162 380.082 409.162 380.082L408.223 387.45Z" fill="#A8A8A8" stroke="#1C3879" stroke-linecap="round" stroke-linejoin="round"/>
<path d="M378.815 391.393L386.132 389.039C389.233 388.039 391.166 383.448 391.166 383.448C391.166 383.448 391.472 385.802 393.35 385.449C395.228 385.096 403.593 384.449 405.46 384.449C407.328 384.449 414.764 382.094 414.764 379.093C414.764 376.091 407.939 368.064 406.694 365.722C405.449 363.379 401.736 362.379 399.247 362.379C396.757 362.379 394.289 364.05 386.842 369.064C379.394 374.079 374.426 376.762 372.875 379.093C371.324 381.424 348.032 424.904 346.536 429.918C345.04 434.933 340.956 444.961 341.884 448.975C343.031 453.93 347.453 458.862 350.729 462.288C355.305 467.102 365.122 465.054 368.037 458.898C370.516 453.636 371.313 446.103 371.313 440.288C371.313 432.59 369.763 427.246 371.313 416.547C372.864 405.848 378.815 391.393 378.815 391.393Z" fill="#D5B5BA" stroke="#1C3879" stroke-linecap="round" stroke-linejoin="round"/>
<path d="M403.571 385.437C403.571 385.437 403.571 388.451 404.499 388.78C405.428 389.11 411.641 389.451 411.947 387.45C412.253 385.449 411.947 384.437 410.396 383.766C408.846 383.095 404.194 383.436 403.571 385.437Z" fill="#A8A8A8" stroke="#1C3879" stroke-linecap="round" stroke-linejoin="round"/>
<path d="M391.166 383.436L393.951 381.094L391.778 378.752" stroke="#1C3879" stroke-linecap="round" stroke-linejoin="round"/>
<path d="M397.674 366.71C397.674 366.71 402.326 376.751 403.265 378.752C404.204 380.753 403.571 380.423 402.326 381.423C401.081 382.424 396.44 385.108 396.44 385.108" stroke="#1C3879" stroke-linecap="round" stroke-linejoin="round"/>
<path d="M403.32 366.039C403.32 366.039 409.872 378.752 409.217 380.093C408.562 381.435 403.626 385.437 403.626 385.437" stroke="#1C3879" stroke-linecap="round" stroke-linejoin="round"/>
<path d="M408.54 369.053C408.54 369.053 413.192 377.41 412.569 379.752C411.947 382.094 409.37 383.719 409.37 383.719" stroke="#1C3879" stroke-linecap="round" stroke-linejoin="round"/>
</svg>
