<svg width="15" height="18" viewBox="0 0 15 18" fill="none" xmlns="http://www.w3.org/2000/svg">
<path d="M4.63387 7.67994C4.59243 7.62771 4.54096 7.5843 4.4825 7.55226C4.42403 7.52021 4.35975 7.50019 4.29343 7.49336C4.22711 7.48652 4.16009 7.49302 4.09632 7.51247C4.03255 7.53192 3.97331 7.56393 3.9221 7.60661C3.87088 7.64929 3.82871 7.70179 3.79808 7.76101C3.76745 7.82022 3.74897 7.88497 3.74373 7.95143C3.73849 8.0179 3.7466 8.08474 3.76758 8.14803C3.78855 8.21131 3.82197 8.26976 3.86587 8.31994L6.09887 10.9999L3.86587 13.6799C3.78474 13.7822 3.74681 13.9121 3.76018 14.042C3.77356 14.1718 3.83718 14.2913 3.93746 14.3748C4.03774 14.4584 4.16671 14.4994 4.29684 14.4892C4.42697 14.4789 4.54792 14.4182 4.63387 14.3199L6.74987 11.7809L8.86587 14.3209C8.95087 14.4228 9.07285 14.4867 9.20497 14.4986C9.27039 14.5045 9.33633 14.4974 9.39902 14.4779C9.46172 14.4583 9.51994 14.4265 9.57037 14.3844C9.6208 14.3424 9.66244 14.2907 9.69292 14.2326C9.72341 14.1744 9.74213 14.1108 9.74803 14.0453C9.75392 13.9799 9.74688 13.914 9.72729 13.8513C9.7077 13.7886 9.67596 13.7304 9.63387 13.6799L7.40087 10.9999L9.63387 8.31994C9.715 8.21769 9.75293 8.08776 9.73955 7.95792C9.72618 7.82808 9.66256 7.70861 9.56228 7.62505C9.462 7.54149 9.33302 7.50045 9.2029 7.51071C9.07277 7.52096 8.95182 7.5817 8.86587 7.67994L6.74987 10.2189L4.63387 7.67894V7.67994Z" fill="#FE4D77"/>
<path d="M14.25 15.75V5.0625L9.1875 0H3C2.40326 0 1.83097 0.237053 1.40901 0.65901C0.987053 1.08097 0.75 1.65326 0.75 2.25V15.75C0.75 16.3467 0.987053 16.919 1.40901 17.341C1.83097 17.7629 2.40326 18 3 18H12C12.5967 18 13.169 17.7629 13.591 17.341C14.0129 16.919 14.25 16.3467 14.25 15.75ZM9.1875 3.375C9.1875 3.82255 9.36529 4.25178 9.68176 4.56824C9.99822 4.88471 10.4274 5.0625 10.875 5.0625H13.125V15.75C13.125 16.0484 13.0065 16.3345 12.7955 16.5455C12.5845 16.7565 12.2984 16.875 12 16.875H3C2.70163 16.875 2.41548 16.7565 2.2045 16.5455C1.99353 16.3345 1.875 16.0484 1.875 15.75V2.25C1.875 1.95163 1.99353 1.66548 2.2045 1.4545C2.41548 1.24353 2.70163 1.125 3 1.125H9.1875V3.375Z" fill="#1C3879"/>
</svg>
